<svg version="1.2" xmlns="http://www.w3.org/2000/svg" viewBox="0 0 557 599" width="557" height="599"><path fill="#3794FF" d="m269 574.4c-7.8-1.6-16.4-4.9-23.5-9-7.6-4.5-16.4-9.6-71.5-42.2-13.5-8-25.1-15-25.8-15.6-0.9-0.9 1-1.8 8.5-3.9 12.4-3.5 31.2-12.7 42.8-21.1 8.3-6 9.1-6.4 11.1-5.1 1.2 0.7 16.1 9.7 33.2 19.9 24.8 14.9 31.8 18.6 34.7 18.6 3.5 0 22.6-10.9 142-81.2 42.1-24.8 39.5-22.4 39.5-36.7v-8.9l7.6-8.9c15.4-17.9 32.5-42.7 43.9-63.3 3.1-5.8 6.1-10.9 6.6-11.4 1.1-1.2 1.1 44.1 0 86.4-0.7 28.5-0.9 29.7-3.4 36.2-3.7 9.5-7.2 15.2-13.9 22.3-8.3 9-3 5.6-107.8 67.2-84.2 49.4-89.1 52.2-96 54.4-6.4 2-22.6 3.3-28 2.3zm-154.1-92.4c-19.5-3.5-38.3-12.2-51-23.7-12-10.8-23.9-31-27.9-47.3-3-12.2-3.6-27.4-1.6-38.6 4.2-24.6 26.2-72.5 47.9-104.9 30.4-45.3 69.6-78.2 106.2-89.1 7.7-2.3 10.9-2.7 22-2.8 12.1 0 13.6 0.2 21.8 3.1 4.8 1.7 11.3 4.6 14.4 6.4 7.8 4.7 20.1 16.5 26 25.2 2.8 4 15.9 26.8 29.3 50.7 13.3 23.9 26.5 47.3 29.1 52 2.7 4.7 4.9 8.9 4.9 9.4 0 0.5-1.5-0.3-3.4-1.7-5.9-4.6-74.5-54.6-92.7-67.8-9.8-6.9-19.8-13.4-22.3-14.4-20.3-7.8-54.3 15.4-83.7 57-17 24.1-38.8 68.6-41.9 85.3-1.2 7.1-0.3 14.1 3.1 21.9 2.6 6.1 10.8 14.4 17.6 17.9 5.2 2.6 6.8 2.9 15.3 2.9 8.2 0 10.3-0.4 15.2-2.7 10.8-5.1 19.6-17.2 21.9-30.5 1.7-9.5 2-9.3-13.2-9.3-10.5 0-13-0.3-12.6-1.3 0.3-0.8 7.8-13.7 16.7-28.8 9-15.1 19.4-32.8 23.3-39.4 3.8-6.6 8.8-15.1 11-18.8 2.2-3.7 4.3-6.4 4.8-6 0.7 0.7 31.2 54.6 46.5 82.3l6.4 11.5-12 0.3-12 0.3v5c0 2.8-0.5 8.3-1.1 12.2-5.9 39.8-33.7 71.2-72.4 81.9-7.9 2.2-28.1 3.2-35.6 1.8zm221.6-58.1c-19.2-2.9-39-15.2-51.9-32.3-2.9-3.9-16.1-26.2-29.1-49.6-13.1-23.4-26.9-47.9-30.7-54.4-6.1-10.5-6.6-11.7-4.1-10.1 5 3.2 29.2 20.5 51.8 37 41.2 30.1 60.5 43.6 65.2 45.7 3.7 1.6 6 1.9 11.4 1.6 23.1-1.7 59.9-35.2 85.7-78 17-28.4 30.2-59.1 30.2-70.5 0-19.1-14.3-36.2-31.8-38.2-22.1-2.5-40.4 13.2-41.9 35.9l-0.6 8h13.2c7.2 0 13.1 0.3 13.1 0.6 0 0.3-2.6 4.9-5.8 10.2-3.2 5.3-12.5 21.2-20.7 35.2-8.1 14-18 30.8-21.8 37.4l-6.9 11.8-2.2-3.8c-1.2-2.2-13.1-22.8-26.4-46-13.3-23.2-24.4-42.9-24.8-43.8-0.5-1.4 0.7-1.6 11.5-1.6h12.1v-5.9c0-17.4 6.9-39.1 17.3-54.6 12.7-18.9 33-33.2 55.7-39.3 8.1-2.2 11.6-2.6 24.5-2.6 17.7-0.1 24.7 1.6 41 9.5 28.1 13.6 46.5 38.4 51 68.9 2.9 18.5 1.4 33.4-5 52.4-13.6 40.5-38.6 83.5-67.5 116.2-36.9 41.7-80.7 65.2-112.5 60.3zm-297.2-186.6c0.5-54.5 0.6-57.1 2.7-63.8 4.2-13.5 11.8-25.1 21.3-32.3 5.1-3.9 38.9-24.2 128.2-76.9 58.3-34.4 59.5-35.1 66-37.4 13.6-4.8 31-4.6 43.7 0.5 7.6 3.1 106.8 60.5 110.6 64.1 1.1 1 0.3 1.4-4 1.9-7.1 0.9-23.9 6.6-32.7 11-3.9 2-11.4 6.5-16.7 10.1l-9.6 6.6-4.7-2.7c-2.5-1.5-17.8-10.5-33.9-20.1-16.1-9.5-30.2-17.3-31.4-17.3-1.2 0-10.3 4.8-20.2 10.7-89.9 53-158.1 93.6-159.8 95.1-1.5 1.3-1.8 3.3-1.8 12.8v11.3l-8.8 9.8c-16.8 18.8-31.1 39.5-42.2 61.3-3.3 6.6-6.4 12-6.7 12-0.3 0-0.4-25.5 0-56.7z"/></svg>
